<svg width="16" height="16" viewBox="0 0 16 16" fill="none" xmlns="http://www.w3.org/2000/svg">
<path d="M8.27497 11.9188L11.425 13.9188C11.8312 14.175 12.3312 13.7938 12.2125 13.325L11.3 9.73752C11.2753 9.63808 11.2792 9.53369 11.3113 9.43638C11.3434 9.33907 11.4023 9.2528 11.4812 9.18752L14.3062 6.83127C14.675 6.52502 14.4875 5.90627 14.0062 5.87502L10.3187 5.63752C10.2181 5.63166 10.1214 5.59663 10.0403 5.53669C9.95932 5.47675 9.89751 5.39451 9.86247 5.30002L8.48747 1.83752C8.45107 1.73745 8.38476 1.65102 8.29755 1.58994C8.21034 1.52886 8.10644 1.49609 7.99997 1.49609C7.89349 1.49609 7.7896 1.52886 7.70238 1.58994C7.61517 1.65102 7.54886 1.73745 7.51247 1.83752L6.13747 5.30002C6.10242 5.39451 6.04061 5.47675 5.95959 5.53669C5.87856 5.59663 5.78183 5.63166 5.68122 5.63752L1.99372 5.87502C1.51247 5.90627 1.32497 6.52502 1.69372 6.83127L4.51872 9.18752C4.59768 9.2528 4.65658 9.33907 4.68865 9.43638C4.72072 9.53369 4.72464 9.63808 4.69997 9.73752L3.85622 13.0625C3.71247 13.625 4.31247 14.0813 4.79372 13.775L7.72497 11.9188C7.80717 11.8665 7.90256 11.8387 7.99997 11.8387C8.09738 11.8387 8.19277 11.8665 8.27497 11.9188V11.9188Z" fill="white" stroke="#ADB7BC" stroke-width="1.5" stroke-linecap="round" stroke-linejoin="round"/>
</svg>
