<svg width="156" height="16" viewBox="0 0 156 16" fill="none" xmlns="http://www.w3.org/2000/svg">
<path d="M5.03184 14.5024C11.0699 14.5024 14.3718 9.49713 14.3718 5.15673C14.3718 5.01458 14.3689 4.87308 14.3625 4.73217C15.005 4.26699 15.5595 3.69103 16 3.03128C15.4118 3.29294 14.7789 3.46904 14.1149 3.54844C14.7926 3.14181 15.3129 2.49851 15.5584 1.73169C14.914 2.11419 14.2091 2.38382 13.4739 2.52898C12.8749 1.89052 12.0221 1.49121 11.0778 1.49121C9.26494 1.49121 7.79489 2.96219 7.79489 4.7754C7.79489 5.03319 7.82374 5.28385 7.88006 5.52436C5.15177 5.38699 2.73252 4.07995 1.11343 2.09252C0.821818 2.59379 0.668434 3.16349 0.668943 3.74345C0.668943 4.88304 1.24846 5.88903 2.12976 6.47759C1.60846 6.46166 1.0986 6.32077 0.643057 6.06676C0.642569 6.08055 0.642569 6.09399 0.642569 6.10872C0.642569 7.69944 1.77408 9.02759 3.27613 9.32854C2.99402 9.40542 2.70292 9.44428 2.41054 9.44411C2.19938 9.44411 1.99359 9.42333 1.79359 9.38491C2.21151 10.69 3.42335 11.6397 4.86013 11.6663C3.73659 12.5474 2.32127 13.0723 0.783024 13.0723C0.521349 13.0725 0.259888 13.0573 0 13.0267C1.45281 13.9585 3.17789 14.5022 5.032 14.5022" fill="white"/>
<g clip-path="url(#clip0_52_3639)">
<path fill-rule="evenodd" clip-rule="evenodd" d="M36 0C40.4183 0 44 3.58173 44 8C44 12.4183 40.4183 16 36 16C31.5817 16 28 12.4183 28 8C28 3.58173 31.5817 0 36 0Z" fill="white"/>
<path d="M37.0415 15.933V9.75237H38.785L39.0161 7.5771H37.0415L37.0444 6.48827C37.0444 5.92091 37.0984 5.61705 37.9138 5.61705H39.0038V3.44141H37.26C35.1653 3.44141 34.4281 4.4966 34.4281 6.27136V7.57726H33.1224V9.75274H34.4281V15.8453C34.9368 15.9466 35.4627 16.0001 36.0012 16.0001C36.3491 16.0001 36.6965 15.9777 37.0415 15.933V15.933Z" fill="#1B6392"/>
</g>
<g clip-path="url(#clip1_52_3639)">
<path d="M63.0242 0.0530204C60.3653 0.349837 57.7158 2.50098 57.6065 5.57382C57.5377 7.45001 58.0705 8.85755 59.856 9.25279C60.6309 7.88586 59.6061 7.58436 59.4468 6.59549C58.7922 2.54316 64.1208 -0.220364 66.9094 2.60877C68.8387 4.56776 67.5686 10.5947 64.4567 9.96827C61.476 9.36995 65.9158 4.57245 63.5366 3.63045C61.6026 2.86497 60.5747 5.97218 61.4917 7.51563C60.9543 10.1698 59.7967 12.6709 60.2653 15.9999C61.7854 14.897 62.2978 12.7849 62.718 10.5822C63.4819 11.0462 63.8896 11.5289 64.8644 11.6039C68.4591 11.882 70.4665 8.01553 69.976 4.44904C69.5401 1.28715 66.3845 -0.321906 63.0242 0.0530204Z" fill="white"/>
</g>
<g clip-path="url(#clip2_52_3639)">
<path d="M92 16C96.4183 16 100 12.4183 100 8C100 3.58172 96.4183 0 92 0C87.5817 0 84 3.58172 84 8C84 12.4183 87.5817 16 92 16Z" fill="white"/>
<path d="M97.3361 8.00013C97.3377 8.10973 97.3241 8.21913 97.2953 8.32493C97.2665 8.43073 97.2229 8.53213 97.1657 8.62573C97.1087 8.71933 97.0387 8.80454 96.9579 8.87874C96.8771 8.95294 96.7863 9.01534 96.6881 9.06414C96.6903 9.09334 96.6921 9.12274 96.6931 9.15214C96.6955 9.21078 96.6955 9.2695 96.6931 9.32814C96.6921 9.35754 96.6903 9.38694 96.6881 9.41614C96.6881 11.2082 94.6001 12.6642 92.024 12.6642C89.448 12.6642 87.36 11.2082 87.36 9.41614C87.3578 9.38694 87.356 9.35754 87.355 9.32814C87.3526 9.2695 87.3526 9.21078 87.355 9.15214C87.356 9.12274 87.3578 9.09334 87.36 9.06414C87.2062 8.99342 87.0695 8.89012 86.9595 8.76138C86.8495 8.63264 86.7688 8.48154 86.723 8.31853C86.6772 8.15545 86.6675 7.98438 86.6944 7.81716C86.7214 7.64994 86.7843 7.49058 86.879 7.35012C86.9736 7.20968 87.0976 7.09151 87.2424 7.00378C87.3872 6.91606 87.5493 6.8609 87.7176 6.84212C87.8859 6.82325 88.0563 6.84121 88.2169 6.89474C88.3776 6.94827 88.5247 7.03609 88.648 7.15212C88.877 6.99692 89.1169 6.85849 89.3658 6.73791C89.6148 6.61751 89.8722 6.51511 90.136 6.43191C90.3998 6.34871 90.6694 6.28491 90.9424 6.24071C91.2154 6.19651 91.4914 6.17231 91.768 6.16811L92.36 3.39208C92.3666 3.35988 92.3796 3.32948 92.3982 3.30228C92.4166 3.27528 92.4404 3.25208 92.4678 3.23428C92.4954 3.21648 92.5262 3.20428 92.5586 3.19828C92.5908 3.19248 92.624 3.19308 92.6561 3.20008L94.6161 3.59208C94.8139 3.25228 95.2291 3.10668 95.5957 3.24828C95.9623 3.38988 96.1719 3.77688 96.0899 4.16129C96.0081 4.54569 95.6589 4.81369 95.2665 4.79349C94.8739 4.77329 94.5541 4.47089 94.5121 4.08009L92.8001 3.72008L92.28 6.21611C92.5532 6.22191 92.8259 6.24751 93.0955 6.29251C93.6353 6.3825 94.1594 6.54997 94.6515 6.78972C94.8972 6.90932 95.134 7.04647 95.3601 7.20012C95.5226 7.04408 95.7268 6.93843 95.9481 6.89592C96.1693 6.85326 96.3982 6.87555 96.6071 6.96012C96.816 7.04464 96.9959 7.1878 97.1253 7.37232C97.2547 7.55686 97.3279 7.7749 97.3361 8.00013V8.00013ZM89.3968 9.10634C89.4372 9.20334 89.496 9.29154 89.5704 9.36574C89.6446 9.44014 89.7328 9.49894 89.8298 9.53934C89.9269 9.5795 90.031 9.60016 90.136 9.60014C90.4596 9.60014 90.7512 9.40514 90.8752 9.10634C90.999 8.80734 90.9304 8.46333 90.7016 8.23453C90.4728 8.00573 90.1288 7.93713 89.8298 8.06093C89.531 8.18493 89.336 8.47653 89.336 8.80014C89.336 8.90514 89.3566 9.00914 89.3968 9.10634V9.10634ZM93.9789 11.0268C94.0199 10.9868 94.0433 10.9322 94.0441 10.875C94.0449 10.8176 94.0227 10.7624 93.9827 10.7214C93.9427 10.6804 93.8881 10.657 93.8309 10.6562C93.7735 10.6554 93.7183 10.6776 93.6721 10.7122C93.5518 10.7984 93.4244 10.8744 93.2913 10.9392C93.1581 11.004 93.0198 11.0574 92.8777 11.099C92.7357 11.1404 92.5902 11.1698 92.4432 11.1868C92.296 11.2038 92.1478 11.2082 92 11.2002C91.8524 11.2068 91.7044 11.2008 91.5578 11.1824C91.4112 11.1641 91.2664 11.1334 91.125 11.0904C90.9834 11.0476 90.846 10.9928 90.7138 10.9268C90.5816 10.8608 90.4552 10.7836 90.336 10.6962C90.2946 10.6622 90.242 10.6448 90.1884 10.6474C90.1348 10.65 90.0842 10.6726 90.0462 10.7104C90.0084 10.7484 89.9858 10.799 89.9832 10.8526C89.9806 10.9062 89.998 10.9588 90.032 11.0002C90.1726 11.1062 90.322 11.1998 90.4786 11.2802C90.6352 11.3606 90.7986 11.4272 90.9666 11.4796C91.1346 11.532 91.3068 11.5698 91.4814 11.5928C91.656 11.6156 91.8322 11.6234 92.008 11.6162C92.1838 11.6234 92.36 11.6156 92.5346 11.5928C92.8844 11.5468 93.2236 11.441 93.5375 11.2802C93.6941 11.1998 93.8435 11.1062 93.9841 11.0002L93.9789 11.0268ZM93.8321 9.66414C93.9405 9.66534 94.0481 9.64434 94.1483 9.60274C94.2485 9.56094 94.3391 9.49934 94.4147 9.42154C94.4903 9.34374 94.5491 9.25134 94.5879 9.14994C94.6267 9.04866 94.6445 8.94052 94.6401 8.83214C94.6401 8.50853 94.4451 8.21693 94.1463 8.09293C93.8473 7.96913 93.5033 8.03773 93.2745 8.26653C93.0457 8.49533 92.9771 8.83934 93.1009 9.13834C93.2249 9.43714 93.5165 9.63214 93.8401 9.63214L93.8321 9.66414Z" fill="#1B6392"/>
</g>
<path d="M120.354 13.5021L117.077 13.4422C116.015 13.4213 114.952 13.463 113.911 13.2467C112.329 12.9235 112.217 11.3388 112.099 10.0096C111.938 8.14084 112 6.23816 112.305 4.38501C112.478 3.3452 113.155 2.72473 114.203 2.65721C117.741 2.41218 121.303 2.44122 124.833 2.55553C125.206 2.56601 125.581 2.62329 125.949 2.68849C127.764 3.00648 127.808 4.80228 127.926 6.314C128.043 7.84132 127.993 9.37649 127.769 10.8934C127.589 12.1494 127.245 13.2026 125.793 13.3043C123.973 13.4373 122.195 13.5443 120.37 13.5102C120.37 13.5021 120.359 13.5021 120.354 13.5021ZM118.427 10.3224C119.799 9.5352 121.144 8.76114 122.508 7.97924C121.134 7.19206 119.791 6.418 118.427 5.6361V10.3224Z" fill="white"/>
<g clip-path="url(#clip3_52_3639)">
<path d="M145.601 7.9998C145.601 6.67437 146.675 5.59961 148 5.59961C149.326 5.59961 150.401 6.67437 150.401 7.9998C150.401 9.32524 149.326 10.4 148 10.4C146.675 10.4 145.601 9.32524 145.601 7.9998V7.9998ZM144.303 7.9998C144.303 10.0417 145.958 11.6969 148 11.6969C150.042 11.6969 151.698 10.0417 151.698 7.9998C151.698 5.95788 150.042 4.30269 148 4.30269C145.958 4.30269 144.303 5.95777 144.303 7.9998H144.303ZM150.98 4.1561C150.98 4.32698 151.031 4.49405 151.125 4.63617C151.22 4.77829 151.355 4.88909 151.513 4.95454C151.671 5.02 151.845 5.03718 152.012 5.00391C152.18 4.97064 152.334 4.88841 152.455 4.76763C152.576 4.64684 152.658 4.49293 152.691 4.32534C152.725 4.15776 152.708 3.98403 152.642 3.82613C152.577 3.66822 152.466 3.53324 152.324 3.43825C152.182 3.34325 152.015 3.29251 151.844 3.29244H151.844C151.615 3.29255 151.395 3.38357 151.233 3.5455C151.071 3.70743 150.98 3.92704 150.98 4.1561V4.1561ZM145.091 13.8605C144.389 13.8285 144.008 13.7116 143.754 13.6128C143.418 13.4819 143.178 13.3261 142.926 13.0742C142.674 12.8224 142.518 12.5828 142.388 12.2467C142.289 11.9932 142.172 11.6116 142.14 10.9096C142.105 10.1506 142.098 9.92266 142.098 7.99992C142.098 6.07717 142.105 5.84983 142.14 5.09026C142.172 4.38828 142.29 4.00738 142.388 3.75319C142.518 3.41703 142.674 3.17719 142.926 2.92501C143.178 2.67284 143.418 2.51675 143.754 2.38645C144.008 2.28761 144.389 2.17068 145.091 2.13877C145.85 2.10387 146.078 2.0969 148 2.0969C149.922 2.0969 150.151 2.10433 150.91 2.13889C151.612 2.17086 151.993 2.28865 152.247 2.38657C152.583 2.51686 152.823 2.6733 153.075 2.92513C153.328 3.17696 153.483 3.41715 153.614 3.7533C153.713 4.00674 153.83 4.3884 153.862 5.09037C153.897 5.84994 153.904 6.07729 153.904 8.00003C153.904 9.92278 153.897 10.1501 153.862 10.9097C153.83 11.6117 153.712 11.9932 153.614 12.2468C153.483 12.5829 153.327 12.8228 153.075 13.0744C152.824 13.326 152.583 13.4821 152.247 13.6129C151.994 13.7118 151.612 13.8287 150.91 13.8606C150.151 13.8955 149.923 13.9025 148 13.9025C146.078 13.9025 145.85 13.8955 145.091 13.8606V13.8605ZM145.032 0.843408C144.265 0.878314 143.742 0.99985 143.284 1.17783C142.811 1.36164 142.409 1.60822 142.009 2.00831C141.608 2.4084 141.362 2.80976 141.178 3.28375C141 3.74144 140.879 4.26491 140.844 5.03139C140.808 5.79908 140.8 6.04451 140.8 7.9998C140.8 9.95509 140.808 10.2005 140.844 10.9682C140.879 11.7348 141 12.2582 141.178 12.7159C141.362 13.1893 141.608 13.5914 142.009 13.9913C142.409 14.3912 142.81 14.6375 143.284 14.8218C143.742 14.9998 144.265 15.1213 145.032 15.1562C145.8 15.1911 146.045 15.1998 148 15.1998C149.956 15.1998 150.201 15.1917 150.969 15.1562C151.735 15.1213 152.259 14.9998 152.717 14.8218C153.19 14.6375 153.591 14.3914 153.992 13.9913C154.393 13.5912 154.638 13.1893 154.823 12.7159C155.001 12.2582 155.123 11.7347 155.157 10.9682C155.192 10.2 155.2 9.95509 155.2 7.9998C155.2 6.04451 155.192 5.79908 155.157 5.03139C155.122 4.26485 155.001 3.74115 154.823 3.28375C154.638 2.81033 154.392 2.40903 153.992 2.00831C153.592 1.60759 153.19 1.36164 152.717 1.17783C152.259 0.99985 151.735 0.877738 150.969 0.843408C150.202 0.80833 149.956 0.799805 148.001 0.799805C146.046 0.799805 145.8 0.807926 145.032 0.843408" fill="white"/>
</g>
<defs>
<clipPath id="clip0_52_3639">
<rect width="16" height="16" fill="white" transform="translate(28)"/>
</clipPath>
<clipPath id="clip1_52_3639">
<rect width="16" height="16" fill="white" transform="translate(56)"/>
</clipPath>
<clipPath id="clip2_52_3639">
<rect width="16" height="16" fill="white" transform="translate(84)"/>
</clipPath>
<clipPath id="clip3_52_3639">
<rect width="16" height="16" fill="white" transform="translate(140)"/>
</clipPath>
</defs>
</svg>
